<?xml version="1.0" standalone="no"?>
<!DOCTYPE svg PUBLIC "-//W3C//DTD SVG 20010904//EN"
 "http://www.w3.org/TR/2001/REC-SVG-20010904/DTD/svg10.dtd">
<svg version="1.0" xmlns="http://www.w3.org/2000/svg"
 width="1024.000000pt" height="1024.000000pt" viewBox="0 0 1024.000000 1024.000000"
 preserveAspectRatio="xMidYMid meet">

<g transform="translate(0.000000,1024.000000) scale(0.100000,-0.100000)"
fill="#000000" stroke="none">
<path d="M3163 8801 c-52 -24 -90 -75 -152 -206 -123 -256 -207 -555 -252
-895 -25 -190 -34 -498 -20 -669 10 -129 10 -136 -10 -170 -38 -65 -110 -243
-139 -347 -24 -87 -38 -159 -66 -362 -5 -33 -6 -33 -47 -27 -279 37 -834 32
-934 -10 -42 -18 -44 -49 -5 -69 57 -30 407 -77 782 -106 207 -16 184 0 197
-137 6 -65 10 -119 9 -121 -2 -1 -219 -6 -484 -11 -264 -5 -486 -12 -491 -16
-15 -9 -13 -41 3 -54 10 -9 138 -10 503 -5 l488 7 32 -102 c18 -55 46 -129 63
-163 16 -34 30 -65 30 -69 0 -4 -26 -10 -57 -14 -121 -15 -792 -123 -802 -130
-17 -10 -13 -45 5 -52 9 -3 109 8 223 25 113 17 231 34 261 37 30 4 125 18
210 31 85 13 166 24 180 24 19 0 35 -13 63 -51 21 -28 37 -53 35 -54 -2 -1
-34 -19 -73 -38 -261 -132 -430 -398 -411 -648 6 -91 33 -168 87 -248 l39 -59
-24 -85 c-59 -204 -83 -425 -66 -621 9 -111 35 -264 56 -328 5 -17 -10 -18
-230 -18 l-235 0 -20 -26 c-27 -35 -27 -65 2 -93 23 -21 34 -22 283 -28 l260
-6 35 -61 c18 -34 35 -64 37 -68 2 -3 -86 -8 -195 -10 -109 -2 -205 -8 -214
-12 -18 -8 -39 -48 -39 -75 0 -9 9 -27 20 -39 20 -22 26 -22 279 -22 l258 0
126 -132 c69 -73 156 -171 194 -218 114 -143 218 -239 368 -342 216 -147 364
-212 544 -238 117 -18 345 -7 443 19 94 26 220 78 288 120 l50 31 1016 0
c1091 0 1056 -2 1084 49 15 28 12 73 -5 98 -22 31 -74 43 -190 43 -96 1 -99 1
-71 16 51 28 154 35 549 39 354 3 390 4 408 20 25 24 25 79 -1 105 -19 19 -33
20 -405 20 l-385 0 35 45 c19 25 38 52 42 60 7 12 80 14 450 15 243 1 459 6
479 10 21 5 44 17 51 26 19 26 16 71 -7 94 -19 19 -33 20 -451 20 -341 0 -430
3 -426 13 39 97 38 96 65 92 106 -18 464 -37 582 -31 511 25 917 183 1206 471
310 307 401 669 248 984 -108 221 -318 348 -564 339 l-97 -3 -15 36 c-26 62
-125 202 -210 299 -279 316 -689 499 -929 414 l-56 -20 34 48 c19 26 37 48 40
48 7 0 337 -48 587 -85 238 -36 256 -36 256 6 0 10 -8 20 -17 23 -24 7 -351
58 -588 92 -104 14 -192 28 -194 30 -1 1 15 38 38 81 48 92 83 180 102 253
l14 53 519 -4 c483 -4 519 -3 530 13 8 14 7 21 -6 34 -14 14 -73 17 -522 22
l-507 5 5 26 c3 14 10 66 16 116 6 49 13 91 14 93 2 1 79 9 172 17 508 45 769
82 811 117 8 6 13 21 11 32 -4 29 -51 42 -189 55 -188 18 -410 13 -740 -15
l-76 -6 -6 78 c-15 187 -72 402 -152 571 l-44 93 14 87 c26 162 35 316 35 579
0 357 -23 632 -75 884 -28 136 -55 213 -96 269 -72 100 -144 105 -308 21 -230
-118 -546 -357 -781 -588 -104 -104 -139 -132 -155 -129 -11 3 -79 26 -151 51
-72 25 -193 57 -270 72 -127 25 -160 28 -379 28 -184 0 -263 -4 -340 -17 -110
-19 -304 -69 -365 -93 l-39 -16 -93 98 c-248 263 -476 453 -702 588 -163 97
-216 111 -293 77z m262 -447 c450 -738 533 -878 528 -891 -8 -22 -27 -15 -64
23 -55 59 -140 94 -225 94 -54 0 -75 -4 -85 -16 -12 -14 -8 -21 29 -53 44 -38
62 -74 62 -121 0 -28 -1 -29 -30 -18 -49 17 -118 88 -154 158 -18 36 -40 66
-49 68 -25 5 -40 -37 -40 -113 0 -83 24 -152 78 -225 31 -42 34 -50 18 -50
-48 1 -121 51 -166 114 -9 13 -20 17 -32 12 -15 -5 -17 -15 -13 -69 6 -74 41
-149 100 -213 22 -24 39 -44 37 -44 -2 0 -26 7 -53 15 -30 9 -91 15 -155 15
-89 0 -115 4 -166 25 -49 20 -62 22 -73 12 -16 -16 -2 -88 28 -147 l20 -39
-42 -68 c-111 -182 -193 -437 -214 -661 -6 -63 -9 -72 -26 -72 -19 0 -20 5
-13 73 19 200 80 410 174 595 l60 118 -11 69 c-15 96 -14 485 0 625 25 228 97
584 138 671 15 34 15 34 9 4 -30 -136 -39 -186 -56 -300 -36 -237 -35 -688 2
-756 10 -20 53 -26 63 -10 3 5 27 78 52 163 25 84 84 270 131 413 71 218 84
266 79 302 -8 62 -105 394 -122 421 -8 12 -23 22 -34 22 -25 0 -25 11 0 60 39
76 48 67 215 -206z m3507 115 c50 -240 78 -573 78 -925 0 -281 -9 -412 -41
-566 l-19 -98 50 -101 c61 -121 112 -268 139 -404 24 -121 31 -246 14 -252 -7
-3 -13 16 -17 54 -11 102 -54 316 -81 398 -27 81 -95 229 -136 297 l-22 37 21
48 c52 122 78 275 48 286 -7 3 -38 -12 -67 -32 -60 -42 -107 -61 -151 -61
l-29 0 26 34 c42 56 65 128 65 206 0 57 -3 72 -17 77 -12 5 -23 -2 -37 -22
-69 -96 -180 -175 -246 -175 -38 0 -40 6 -25 56 19 63 58 110 116 139 27 14
49 30 49 35 0 21 -46 50 -98 61 -98 20 -221 -11 -308 -78 -41 -31 -74 -38 -74
-16 0 7 660 1009 705 1071 9 13 22 21 28 19 7 -2 20 -41 29 -88z m-3317 -94
c187 -148 431 -395 569 -574 58 -75 66 -95 42 -104 -8 -3 -37 25 -78 76 -147
187 -332 387 -543 587 -122 116 -121 118 10 15z m2935 -9 c-8 -7 -51 -44 -95
-82 -216 -184 -442 -415 -568 -579 -28 -36 -53 -65 -57 -65 -4 0 -13 7 -20 15
-18 22 86 153 264 331 162 161 256 241 393 335 85 58 112 73 83 45z m-1194
-420 c174 -37 434 -130 434 -156 0 -23 -34 -21 -108 8 -445 174 -898 183
-1325 25 -54 -20 -70 -23 -82 -13 -8 7 -15 16 -15 20 0 12 159 68 270 96 171
44 268 53 495 49 178 -3 228 -7 331 -29z m-108 -158 c23 -23 -5 -37 -62 -31
-124 13 -395 -31 -566 -92 -106 -38 -278 -128 -366 -191 -79 -57 -104 -65
-104 -36 0 22 123 113 237 174 161 87 320 142 503 173 99 17 342 19 358 3z
m-323 -277 c-6 -5 -46 -16 -90 -26 -253 -55 -506 -191 -702 -378 -86 -82 -113
-97 -113 -62 0 8 34 48 75 89 201 200 468 343 740 399 59 12 72 12 85 1 9 -9
11 -17 5 -23z m785 -260 c150 -34 293 -99 298 -137 3 -18 -5 -22 -71 -32 -97
-15 -225 -62 -319 -117 -158 -92 -320 -280 -387 -446 -42 -105 -53 -161 -53
-264 0 -148 49 -262 156 -363 90 -85 185 -122 316 -122 156 0 285 52 462 186
62 46 146 101 186 121 65 32 85 37 163 41 75 4 100 1 152 -18 72 -27 137 -67
137 -86 0 -9 -21 -3 -67 19 -61 29 -78 32 -158 32 -80 0 -97 -3 -157 -32 -60
-28 -158 -104 -158 -123 0 -4 29 -10 64 -13 78 -7 121 -24 170 -67 51 -45 101
-119 84 -124 -7 -3 -130 -7 -273 -11 -143 -4 -267 -11 -277 -16 -22 -12 -24
-47 -3 -55 8 -4 151 -2 317 4 l303 9 50 -26 c43 -22 62 -26 135 -25 70 0 95 5
144 27 46 21 74 27 128 27 67 0 69 -1 63 -22 -33 -110 -132 -304 -161 -315 -8
-3 -98 9 -201 26 -252 41 -727 111 -757 111 -27 0 -45 -35 -28 -52 6 -6 156
-32 334 -59 501 -76 601 -93 605 -105 5 -14 -182 -211 -236 -248 l-40 -28
-198 85 c-296 127 -430 179 -450 175 -22 -4 -24 -47 -3 -59 12 -7 448 -190
553 -232 15 -6 27 -15 27 -19 0 -10 -128 -84 -209 -121 -444 -201 -1219 -290
-1941 -221 -316 30 -578 87 -798 174 -112 44 -270 124 -296 150 -10 10 87 57
374 182 102 44 191 86 198 93 11 10 11 17 3 34 -7 11 -15 21 -20 21 -5 0 -48
-18 -97 -39 -49 -21 -179 -78 -289 -126 -110 -48 -210 -93 -223 -101 -13 -9
-28 -11 -36 -7 -41 23 -184 156 -236 219 l-60 72 63 11 c34 6 233 35 442 66
471 68 450 63 450 95 0 19 -6 26 -25 28 -20 2 -425 -54 -866 -119 -44 -7 -87
-10 -96 -7 -29 12 -152 288 -135 304 9 9 47 -6 47 -19 0 -26 75 -119 114 -142
60 -34 98 -39 159 -21 69 20 126 62 178 131 l43 57 288 -8 c270 -6 288 -6 294
11 4 10 3 25 -3 34 -9 13 -42 17 -214 23 -112 4 -231 8 -264 10 l-60 3 70 71
c73 73 149 114 215 114 16 0 32 5 36 11 11 18 -67 88 -136 122 -58 29 -74 32
-150 32 -72 -1 -95 -5 -148 -29 -62 -29 -95 -28 -57 1 45 34 118 64 182 75 57
9 80 9 144 -6 88 -19 152 -55 277 -154 139 -110 211 -145 330 -162 152 -21
290 26 403 139 99 99 138 196 139 340 0 145 -63 295 -178 421 -44 48 -62 75
-58 87 12 36 134 170 218 238 190 154 425 254 668 285 105 13 309 3 410 -19z
m-1847 -567 c181 -46 339 -188 415 -369 33 -78 32 -98 -3 -121 -23 -15 -27
-15 -49 -1 -13 9 -42 54 -65 100 -109 227 -345 339 -588 282 -35 -8 -99 -33
-143 -55 -44 -22 -85 -40 -91 -40 -23 0 -49 33 -49 62 0 23 9 34 46 57 155 99
352 130 527 85z m2461 10 c90 -23 221 -87 241 -118 23 -35 13 -74 -21 -82 -19
-5 -49 5 -113 35 -87 41 -195 71 -261 71 -52 0 -154 -27 -218 -57 -88 -41
-188 -147 -244 -258 -41 -83 -47 -90 -77 -93 -75 -8 -79 44 -14 171 82 160
226 282 388 328 78 23 236 24 319 3z m838 -809 c-1 -22 -7 -70 -13 -107 l-11
-68 -49 0 -49 0 25 38 c26 40 65 140 65 167 0 10 7 15 17 13 14 -3 17 -12 15
-43z m-4412 -7 c1 -27 20 -163 26 -181 5 -15 1 -18 -17 -15 -27 4 -37 42 -38
146 -1 49 2 62 14 62 8 0 15 -6 15 -12z m4610 -894 c39 -8 116 -39 173 -67 99
-50 256 -154 257 -169 0 -5 -21 -8 -47 -8 -60 0 -141 -21 -201 -53 l-47 -25
-35 25 c-56 40 -230 121 -295 139 -33 8 -103 19 -155 22 l-95 8 95 48 c109 57
213 95 253 96 15 0 59 -7 97 -16z m-4580 -145 c0 -5 -28 -37 -63 -72 -170
-167 -205 -415 -78 -559 26 -29 29 -38 17 -47 -11 -9 -23 -3 -58 31 -122 120
-131 324 -20 493 70 107 202 208 202 154z m4339 -100 c153 -34 283 -109 412
-238 103 -104 151 -175 198 -293 33 -80 58 -175 49 -183 -7 -7 -161 -46 -165
-42 -2 2 4 23 12 47 46 129 -7 247 -137 305 -55 25 -76 29 -168 30 -85 1 -118
6 -176 27 -39 15 -91 29 -115 33 l-44 7 -48 146 c-27 81 -51 153 -54 160 -3 7
31 -6 75 -30 69 -37 82 -41 96 -29 23 19 20 46 -6 65 -26 19 -33 19 71 -5z
m-407 -104 c45 -109 84 -250 107 -385 24 -140 28 -370 10 -496 -11 -72 -13
-75 -25 -53 -11 19 -13 57 -8 174 10 234 -22 447 -97 664 -53 151 -57 174 -34
169 12 -2 29 -28 47 -73z m1151 18 c33 -5 48 -17 106 -90 78 -97 141 -198 141
-228 0 -11 -13 -47 -29 -80 -30 -64 -106 -142 -171 -175 l-37 -19 -23 82 c-45
153 -136 312 -240 415 -28 27 -40 46 -34 52 38 38 187 60 287 43z m-4268 -98
c62 -8 80 -18 71 -40 -5 -13 -13 -16 -34 -11 -15 3 -67 9 -117 12 -213 14
-386 -79 -467 -252 -26 -55 -32 -82 -36 -161 -4 -79 -7 -93 -21 -91 -12 3 -17
18 -19 72 -9 205 104 370 306 446 94 36 177 42 317 25z m2564 -128 c123 -268
131 -528 26 -778 -69 -164 -249 -400 -425 -558 -66 -59 -77 -65 -143 -77 -124
-24 -237 -78 -334 -161 -51 -43 -53 -44 -82 -29 -23 12 -34 30 -52 83 -12 37
-35 90 -51 117 -17 28 -54 98 -83 156 -30 59 -80 143 -113 186 -69 92 -271
290 -389 384 -74 58 -82 67 -75 90 4 14 7 68 7 120 0 75 -5 108 -23 155 -34
89 -90 164 -164 220 -37 27 -66 50 -65 51 1 0 58 -6 127 -14 167 -20 892 -22
1070 -4 256 26 574 78 685 111 50 15 54 13 84 -52z m931 -99 c19 -5 41 -11 48
-14 8 -2 -8 -28 -44 -71 -32 -38 -61 -69 -64 -71 -4 -1 -11 26 -14 60 -4 35
-10 76 -13 91 -6 31 -4 31 87 5z m375 -65 c101 -52 126 -131 74 -234 -28 -57
-37 -60 -145 -57 l-98 3 -8 32 c-11 42 -43 63 -96 63 -37 0 -45 -4 -60 -30
-14 -25 -23 -30 -54 -30 -51 0 -50 20 4 100 54 81 130 157 171 169 51 16 166
7 212 -16z m-3339 -43 c91 -39 164 -150 172 -262 7 -101 -4 -115 -33 -43 -27
65 -51 102 -78 119 -13 8 -21 6 -38 -10 l-21 -21 31 -60 c46 -91 56 -144 37
-181 -16 -32 -57 -65 -97 -81 -24 -9 -24 -8 -21 46 3 43 -2 69 -23 120 -31 72
-58 98 -87 82 -24 -13 -23 -28 8 -118 23 -65 24 -80 15 -113 -14 -45 -37 -61
-113 -81 l-58 -15 0 61 c0 68 -29 147 -54 147 -44 0 -47 -8 -40 -105 6 -87 6
-93 -15 -107 -26 -18 -72 -11 -123 19 -40 23 -93 108 -102 162 -23 143 90 303
278 397 148 73 263 87 362 44z m4418 -68 c164 -77 256 -227 256 -420 0 -156
-51 -295 -161 -442 -181 -240 -479 -414 -833 -485 -119 -24 -373 -52 -382 -42
-3 3 16 35 41 73 203 296 262 655 151 906 l-25 57 37 6 c20 3 80 15 133 27
l95 20 51 -25 c65 -33 152 -113 193 -178 27 -42 37 -50 59 -47 37 4 38 37 5
99 -29 52 -138 162 -180 181 -13 6 -24 14 -24 17 0 3 21 17 47 31 63 33 159
123 200 187 41 64 66 74 185 69 71 -3 98 -9 152 -34z m-1950 -244 c54 -116 96
-247 131 -408 33 -148 45 -422 26 -550 -40 -262 -138 -488 -291 -668 -87 -101
-103 -109 -85 -40 8 27 20 58 27 67 134 182 171 250 223 404 52 155 69 266 69
457 1 250 -38 447 -138 699 -25 63 -43 118 -40 123 16 25 39 1 78 -84z m-3954
55 c14 -9 26 -17 28 -18 1 -1 -23 -44 -54 -96 -31 -52 -53 -83 -50 -69 4 14 8
39 10 55 6 51 29 145 35 145 4 0 18 -8 31 -17z m228 -126 c59 -30 142 -69 184
-87 l77 -33 -66 -71 c-158 -170 -271 -381 -312 -584 l-17 -83 -58 78 c-105
142 -146 256 -131 368 7 52 61 207 102 290 38 77 97 175 106 175 4 0 56 -24
115 -53z m4222 -4 l33 -6 -6 -71 c-9 -100 -40 -204 -96 -322 -53 -111 -67
-128 -77 -90 -9 37 0 96 34 231 17 66 36 153 42 193 12 76 13 77 70 65z m277
-30 l115 -6 24 -37 c128 -194 96 -525 -79 -809 l-21 -34 -12 60 c-13 64 -39
122 -85 190 -32 46 -62 61 -84 43 -22 -19 -18 -42 16 -88 45 -61 71 -145 72
-230 0 -70 -13 -116 -37 -125 -16 -6 -203 11 -284 26 -57 11 -67 16 -65 32 2
11 9 61 18 110 8 50 15 120 15 156 0 62 3 71 46 135 99 148 162 304 190 470
21 126 21 127 40 120 9 -3 67 -9 131 -13z m-2911 -159 c90 -64 97 -70 69 -59
-47 19 -152 54 -179 60 l-29 6 23 25 c13 13 27 24 30 24 4 0 43 -25 86 -56z
m-1120 -15 c60 -22 120 -51 134 -64 14 -13 44 -34 67 -47 l43 -24 -67 -45
c-89 -58 -225 -195 -291 -292 -101 -147 -168 -324 -179 -474 l-6 -74 -31 37
c-17 21 -66 81 -109 133 l-77 96 6 55 c26 245 155 515 326 683 32 31 62 57 66
57 5 0 58 -18 118 -41z m1034 -174 c91 -23 234 -95 305 -152 81 -66 149 -152
195 -248 50 -103 69 -177 76 -295 15 -228 -61 -436 -224 -611 -309 -332 -797
-397 -1162 -154 -92 61 -197 174 -243 262 -102 195 -106 448 -10 666 100 228
312 421 553 504 54 18 124 38 156 43 82 13 276 4 354 -15z m1441 -625 c86 -16
187 -72 257 -140 187 -186 197 -483 20 -602 -49 -33 -78 -35 -104 -7 -16 18
-19 38 -20 118 -2 127 0 121 -33 121 -22 0 -31 -6 -41 -30 -14 -35 -19 -171
-7 -217 l9 -33 -72 0 c-67 0 -74 2 -100 30 -48 51 -51 136 -9 259 22 61 18 87
-13 97 -28 9 -52 -21 -74 -89 -21 -67 -30 -197 -16 -236 11 -30 10 -31 -16
-31 -15 0 -48 10 -72 23 -81 41 -99 119 -59 254 23 78 18 103 -22 103 -25 0
-43 -30 -68 -114 -23 -75 -26 -130 -11 -172 14 -35 8 -39 -28 -20 -101 52
-138 189 -92 338 74 240 326 394 571 348z"/>
<path d="M4784 5922 c-68 -24 -101 -46 -124 -85 -43 -70 -14 -141 77 -185 l58
-27 7 -57 c8 -62 19 -91 50 -125 28 -30 18 -63 -38 -123 -112 -120 -324 -148
-489 -65 -80 40 -95 42 -118 17 -52 -57 14 -122 168 -168 74 -21 227 -22 304
-1 44 12 59 13 84 2 55 -23 114 8 153 80 l18 33 28 -44 c36 -57 84 -80 133
-64 26 9 51 7 116 -6 56 -11 104 -15 148 -10 181 16 325 124 253 189 -26 24
-53 21 -93 -9 -67 -50 -153 -69 -252 -55 -126 18 -239 93 -267 176 -11 34 -10
39 15 65 20 21 30 46 38 99 l12 71 53 26 c63 31 92 69 92 121 0 57 -30 96 -97
129 -51 26 -70 29 -168 32 -86 2 -121 -2 -161 -16z m278 -78 c56 -18 70 -34
66 -71 -2 -23 -13 -33 -55 -53 -73 -35 -82 -47 -94 -126 -12 -75 -22 -94 -49
-94 -27 0 -41 24 -50 88 -12 84 -23 100 -96 133 -53 24 -64 33 -64 53 0 37 60
73 150 90 39 7 140 -3 192 -20z"/>
<path d="M5557 5604 c-15 -15 -7 -63 13 -74 33 -17 62 4 58 43 -3 27 -7 32
-33 35 -17 2 -34 0 -38 -4z"/>
<path d="M4228 5589 c-36 -21 -16 -79 27 -79 42 0 59 44 29 74 -18 18 -32 20
-56 5z"/>
<path d="M5362 5578 c-7 -7 -12 -21 -12 -33 0 -45 60 -63 80 -24 23 41 -35 90
-68 57z"/>
<path d="M4428 5569 c-36 -21 -16 -79 27 -79 42 0 59 44 29 74 -18 18 -32 20
-56 5z"/>
<path d="M5472 5418 c-39 -39 17 -100 58 -63 34 31 20 75 -25 75 -12 0 -26 -5
-33 -12z"/>
<path d="M4282 5408 c-19 -19 -14 -56 9 -68 16 -9 26 -8 45 5 39 26 26 75 -21
75 -12 0 -26 -5 -33 -12z"/>
<path d="M7282 4230 c-40 -9 -82 -46 -82 -72 0 -24 26 -23 57 2 37 29 88 26
120 -6 24 -24 25 -30 20 -90 -6 -57 -4 -64 12 -64 41 0 59 106 28 166 -28 54
-88 79 -155 64z"/>
<path d="M3870 3304 c-58 -16 -142 -65 -164 -95 -11 -16 -17 -17 -45 -8 -24 8
-35 8 -46 -1 -28 -23 -19 -42 39 -83 17 -12 17 -19 6 -103 -13 -87 -6 -146 25
-225 5 -13 -3 -20 -32 -29 -56 -18 -159 -87 -193 -131 -54 -67 -73 -124 -68
-198 6 -82 31 -132 96 -193 195 -182 502 -148 638 72 20 33 39 60 42 60 2 0
45 -27 94 -61 103 -70 181 -109 220 -109 14 0 41 12 58 27 30 25 32 30 28 79
-4 51 -4 53 23 59 32 7 76 54 85 91 4 14 4 42 1 63 -14 109 -99 195 -257 262
-38 17 -59 30 -50 33 8 3 35 10 60 17 168 43 270 194 216 322 -43 104 -220
169 -395 146 -61 -8 -88 -7 -136 5 -73 20 -172 19 -245 0z m200 -71 c0 -4 -23
-28 -51 -54 -78 -72 -44 -97 45 -34 79 56 148 78 251 79 167 2 265 -50 265
-140 0 -69 -35 -122 -105 -157 -46 -22 -216 -59 -250 -54 -71 12 -185 79 -263
156 -53 53 -95 84 -135 101 -31 14 -57 28 -57 32 0 12 61 51 103 64 44 13 197
19 197 7z m-224 -198 c17 -13 56 -50 85 -81 59 -62 126 -99 330 -185 276 -115
339 -166 341 -271 1 -74 -50 -88 -139 -37 -52 30 -55 30 -74 14 -27 -25 -24
-40 14 -64 50 -31 86 -69 93 -97 9 -35 -11 -46 -52 -29 -70 29 -540 351 -599
410 -96 95 -134 201 -115 319 5 33 10 64 10 69 0 11 69 -20 106 -48z m-48
-405 l50 -56 -24 -23 c-34 -33 -33 -92 2 -120 51 -40 119 -17 132 46 l7 31 62
-41 c35 -23 63 -48 63 -55 0 -24 -40 -91 -76 -126 -65 -63 -115 -81 -229 -81
-87 0 -107 3 -155 26 -109 51 -162 121 -164 214 -1 104 104 217 229 245 38 9
42 6 103 -60z"/>
<path d="M4214 3170 c-24 -10 -38 -36 -23 -45 5 -4 28 -4 50 0 30 5 46 2 67
-11 47 -31 53 -44 50 -124 -3 -61 0 -75 12 -75 21 0 50 63 50 110 0 109 -107
185 -206 145z"/>
<path d="M4134 3086 c-82 -36 -46 -156 47 -156 29 0 79 53 79 84 0 31 -37 74
-70 80 -14 3 -39 -1 -56 -8z"/>
<path d="M3753 2994 c-10 -26 4 -120 26 -168 24 -55 106 -144 170 -185 26 -17
76 -38 113 -48 62 -16 70 -16 165 2 118 21 171 13 237 -36 49 -36 66 -37 66
-3 0 35 -48 79 -112 100 -51 17 -66 17 -268 -2 -56 -5 -73 -2 -122 19 -108 48
-218 184 -218 270 0 54 -41 92 -57 51z"/>
<path d="M3599 2597 c-78 -52 -72 -159 12 -251 67 -73 128 -99 225 -94 54 2
80 9 100 24 39 28 51 51 37 65 -9 9 -21 6 -50 -12 -29 -18 -52 -24 -98 -24
-90 1 -165 47 -206 127 -26 51 -24 84 7 115 23 23 31 25 75 19 39 -5 49 -4 49
8 0 49 -92 63 -151 23z"/>
<path d="M5380 8723 c-67 -60 -25 -163 66 -163 39 0 84 51 84 95 0 27 -8 44
-29 66 -38 38 -80 39 -121 2z"/>
<path d="M7646 7455 c-37 -20 -53 -41 -66 -88 -9 -31 -8 -45 8 -80 42 -95 168
-103 222 -14 66 108 -53 240 -164 182z"/>
<path d="M7653 6635 c-18 -8 -42 -29 -53 -47 -77 -126 81 -258 192 -159 25 22
32 37 36 79 5 60 -10 92 -61 122 -37 23 -70 25 -114 5z"/>
<path d="M2060 6580 c-43 -43 -38 -109 13 -141 89 -55 186 63 112 136 -31 32
-96 34 -125 5z"/>
<path d="M4989 1671 c-32 -26 -32 -86 0 -113 23 -18 47 -18 603 -16 l580 3 19
24 c27 34 24 75 -7 100 -26 21 -35 21 -599 21 -545 0 -574 -1 -596 -19z"/>
<path d="M4153 1470 c-41 -24 -53 -48 -53 -102 1 -87 82 -134 160 -93 32 17
60 61 60 95 0 41 -32 92 -66 106 -44 19 -63 18 -101 -6z"/>
</g>
</svg>
