<?xml version="1.0" encoding="UTF-8" standalone="no" ?>
<!DOCTYPE svg PUBLIC "-//W3C//DTD SVG 1.1//EN" "http://www.w3.org/Graphics/SVG/1.1/DTD/svg11.dtd">
<svg xmlns="http://www.w3.org/2000/svg" xmlns:xlink="http://www.w3.org/1999/xlink" version="1.1" width="1080" height="1080" viewBox="0 0 1080 1080" xml:space="preserve">
<desc>Created with Fabric.js 5.2.4</desc>
<defs>
</defs>
<g transform="matrix(1 0 0 1 540 540)" id="57e3c6e5-6bca-4ed7-b1bf-1b240d2c567c"  >
<rect style="stroke: none; stroke-width: 1; stroke-dasharray: none; stroke-linecap: butt; stroke-dashoffset: 0; stroke-linejoin: miter; stroke-miterlimit: 4; fill: rgb(255,255,255); fill-rule: nonzero; opacity: 1;" vector-effect="non-scaling-stroke"  x="-540" y="-540" rx="0" ry="0" width="1080" height="1080" />
</g>
<g transform="matrix(1 0 0 1 540 540)" id="5e857b12-4b3c-47d4-8220-807a888ed1a9"  >
</g>
<g transform="matrix(1 0 0 1 540 540)"  >
<g style="" vector-effect="non-scaling-stroke"   >
		<g transform="matrix(0.13 0 0 -0.13 0 -26.74)"  >
<path style="stroke: none; stroke-width: 1; stroke-dasharray: none; stroke-linecap: butt; stroke-dashoffset: 0; stroke-linejoin: miter; stroke-miterlimit: 4; fill: rgb(0,0,0); fill-rule: nonzero; opacity: 1;" vector-effect="non-scaling-stroke"  transform=" translate(-5253.41, -5239.45)" d="M 3163 8801 C 3111 8777 3073 8726 3011 8595 C 2888 8339 2804 8040 2759 7700 C 2734 7510 2725 7202 2739 7031 C 2749 6902 2749 6895 2729 6861 C 2691 6796 2619 6618 2590 6514 C 2566 6427 2552 6355 2524 6152 C 2519 6119 2518 6119 2477 6125 C 2198 6162 1643 6157 1543 6115 C 1501 6097 1499 6066 1538 6046 C 1595 6016 1945 5969 2320 5940 C 2527 5924 2504 5940 2517 5803 C 2523 5738 2527 5684 2526 5682 C 2524 5681 2307 5676 2042 5671 C 1778 5666 1556 5659 1551 5655 C 1536 5646 1538 5614 1554 5601 C 1564 5592 1692 5591 2057 5596 L 2545 5603 L 2577 5501 C 2595 5446 2623 5372 2640 5338 C 2656 5304 2670 5273 2670 5269 C 2670 5265 2644 5259 2613 5255 C 2492 5240 1821 5132 1811 5125 C 1794 5115 1798 5080 1816 5073 C 1825 5070 1925 5081 2039 5098 C 2152 5115 2270 5132 2300 5135 C 2330 5139 2425 5153 2510 5166 C 2595 5179 2676 5190 2690 5190 C 2709 5190 2725 5177 2753 5139 C 2774 5111 2790 5086 2788 5085 C 2786 5084 2754 5066 2715 5047 C 2454 4915 2285 4649 2304 4399 C 2310 4308 2337 4231 2391 4151 L 2430 4092 L 2406 4007 C 2347 3803 2323 3582 2340 3386 C 2349 3275 2375 3122 2396 3058 C 2401 3041 2386 3040 2166 3040 L 1931 3040 L 1911 3014 C 1884 2979 1884 2949 1913 2921 C 1936 2900 1947 2899 2196 2893 L 2456 2887 L 2491 2826 C 2509 2792 2526 2762 2528 2758 C 2530 2755 2442 2750 2333 2748 C 2224 2746 2128 2740 2119 2736 C 2101 2728 2080 2688 2080 2661 C 2080 2652 2089 2634 2100 2622 C 2120 2600 2126 2600 2379 2600 L 2637 2600 L 2763 2468 C 2832 2395 2919 2297 2957 2250 C 3071 2107 3175 2011 3325 1908 C 3541 1761 3689 1696 3869 1670 C 3986 1652 4214 1663 4312 1689 C 4406 1715 4532 1767 4600 1809 L 4650 1840 L 5666 1840 C 6757 1840 6722 1838 6750 1889 C 6765 1917 6762 1962 6745 1987 C 6723 2018 6671 2030 6555 2030 C 6459 2031 6456 2031 6484 2046 C 6535 2074 6638 2081 7033 2085 C 7387 2088 7423 2089 7441 2105 C 7466 2129 7466 2184 7440 2210 C 7421 2229 7407 2230 7035 2230 L 6650 2230 L 6685 2275 C 6704 2300 6723 2327 6727 2335 C 6734 2347 6807 2349 7177 2350 C 7420 2351 7636 2356 7656 2360 C 7677 2365 7700 2377 7707 2386 C 7726 2412 7723 2457 7700 2480 C 7681 2499 7667 2500 7249 2500 C 6908 2500 6819 2503 6823 2513 C 6862 2610 6861 2609 6888 2605 C 6994 2587 7352 2568 7470 2574 C 7981 2599 8387 2757 8676 3045 C 8986 3352 9077 3714 8924 4029 C 8816 4250 8606 4377 8360 4368 L 8263 4365 L 8248 4401 C 8222 4463 8123 4603 8038 4700 C 7759 5016 7349 5199 7109 5114 L 7053 5094 L 7087 5142 C 7106 5168 7124 5190 7127 5190 C 7134 5190 7464 5142 7714 5105 C 7952 5069 7970 5069 7970 5111 C 7970 5121 7962 5131 7953 5134 C 7929 5141 7602 5192 7365 5226 C 7261 5240 7173 5254 7171 5256 C 7170 5257 7186 5294 7209 5337 C 7257 5429 7292 5517 7311 5590 L 7325 5643 L 7844 5639 C 8327 5635 8363 5636 8374 5652 C 8382 5666 8381 5673 8368 5686 C 8354 5700 8295 5703 7846 5708 L 7339 5713 L 7344 5739 C 7347 5753 7354 5805 7360 5855 C 7366 5904 7373 5946 7374 5948 C 7376 5949 7453 5957 7546 5965 C 8054 6010 8315 6047 8357 6082 C 8365 6088 8370 6103 8368 6114 C 8364 6143 8317 6156 8179 6169 C 7991 6187 7769 6182 7439 6154 L 7363 6148 L 7357 6226 C 7342 6413 7285 6628 7205 6797 L 7161 6890 L 7175 6977 C 7201 7139 7210 7293 7210 7556 C 7210 7913 7187 8188 7135 8440 C 7107 8576 7080 8653 7039 8709 C 6967 8809 6895 8814 6731 8730 C 6501 8612 6185 8373 5950 8142 C 5846 8038 5811 8010 5795 8013 C 5784 8016 5716 8039 5644 8064 C 5572 8089 5451 8121 5374 8136 C 5247 8161 5214 8164 4995 8164 C 4811 8164 4732 8160 4655 8147 C 4545 8128 4351 8078 4290 8054 L 4251 8038 L 4158 8136 C 3910 8399 3682 8589 3456 8724 C 3293 8821 3240 8835 3163 8801 z M 3425 8354 C 3875 7616 3958 7476 3953 7463 C 3945 7441 3926 7448 3889 7486 C 3834 7545 3749 7580 3664 7580 C 3610 7580 3589 7576 3579 7564 C 3567 7550 3571 7543 3608 7511 C 3652 7473 3670 7437 3670 7390 C 3670 7362 3669 7361 3640 7372 C 3591 7389 3522 7460 3486 7530 C 3468 7566 3446 7596 3437 7598 C 3412 7603 3397 7561 3397 7485 C 3397 7402 3421 7333 3475 7260 C 3506 7218 3509 7210 3493 7210 C 3445 7211 3372 7261 3327 7324 C 3318 7337 3307 7341 3295 7336 C 3280 7331 3278 7321 3282 7267 C 3288 7193 3323 7118 3382 7054 C 3404 7030 3421 7010 3419 7010 C 3417 7010 3393 7017 3366 7025 C 3336 7034 3275 7040 3211 7040 C 3122 7040 3096 7044 3045 7065 C 2996 7085 2983 7087 2972 7077 C 2956 7061 2970 6989 3000 6930 L 3020 6891 L 2978 6823 C 2867 6641 2785 6386 2764 6162 C 2758 6099 2755 6090 2738 6090 C 2719 6090 2718 6095 2725 6163 C 2744 6363 2805 6573 2899 6758 L 2959 6876 L 2948 6945 C 2933 7041 2934 7430 2948 7570 C 2973 7798 3045 8154 3086 8241 C 3101 8275 3101 8275 3095 8245 C 3065 8109 3056 8059 3039 7945 C 3003 7708 3004 7257 3041 7189 C 3051 7169 3094 7163 3104 7179 C 3107 7184 3131 7257 3156 7342 C 3181 7426 3240 7612 3287 7755 C 3358 7973 3371 8021 3366 8057 C 3358 8119 3261 8451 3244 8478 C 3236 8490 3221 8500 3210 8500 C 3185 8500 3185 8511 3210 8560 C 3249 8636 3258 8627 3425 8354 z M 6932 8469 C 6982 8229 7010 7896 7010 7544 C 7010 7263 7001 7132 6969 6978 L 6950 6880 L 7000 6779 C 7061 6658 7112 6511 7139 6375 C 7163 6254 7170 6129 7153 6123 C 7146 6120 7140 6139 7136 6177 C 7125 6279 7082 6493 7055 6575 C 7028 6656 6960 6804 6919 6872 L 6897 6909 L 6918 6957 C 6970 7079 6996 7232 6966 7243 C 6959 7246 6928 7231 6899 7211 C 6839 7169 6792 7150 6748 7150 L 6719 7150 L 6745 7184 C 6787 7240 6810 7312 6810 7390 C 6810 7447 6807 7462 6793 7467 C 6781 7472 6770 7465 6756 7445 C 6687 7349 6576 7270 6510 7270 C 6472 7270 6470 7276 6485 7326 C 6504 7389 6543 7436 6601 7465 C 6628 7479 6650 7495 6650 7500 C 6650 7521 6604 7550 6552 7561 C 6454 7581 6331 7550 6244 7483 C 6203 7452 6170 7445 6170 7467 C 6170 7474 6830 8476 6875 8538 C 6884 8551 6897 8559 6903 8557 C 6910 8555 6923 8516 6932 8469 z M 3615 8375 C 3802 8227 4046 7980 4184 7801 C 4242 7726 4250 7706 4226 7697 C 4218 7694 4189 7722 4148 7773 C 4001 7960 3816 8160 3605 8360 C 3483 8476 3484 8478 3615 8375 z M 6550 8366 C 6542 8359 6499 8322 6455 8284 C 6239 8100 6013 7869 5887 7705 C 5859 7669 5834 7640 5830 7640 C 5826 7640 5817 7647 5810 7655 C 5792 7677 5896 7808 6074 7986 C 6236 8147 6330 8227 6467 8321 C 6552 8379 6579 8394 6550 8366 z M 5356 7946 C 5530 7909 5790 7816 5790 7790 C 5790 7767 5756 7769 5682 7798 C 5237 7972 4784 7981 4357 7823 C 4303 7803 4287 7800 4275 7810 C 4267 7817 4260 7826 4260 7830 C 4260 7842 4419 7898 4530 7926 C 4701 7970 4798 7979 5025 7975 C 5203 7972 5253 7968 5356 7946 z M 5248 7788 C 5271 7765 5243 7751 5186 7757 C 5062 7770 4791 7726 4620 7665 C 4514 7627 4342 7537 4254 7474 C 4175 7417 4150 7409 4150 7438 C 4150 7460 4273 7551 4387 7612 C 4548 7699 4707 7754 4890 7785 C 4989 7802 5232 7804 5248 7788 z M 4925 7511 C 4919 7506 4879 7495 4835 7485 C 4582 7430 4329 7294 4133 7107 C 4047 7025 4020 7010 4020 7045 C 4020 7053 4054 7093 4095 7134 C 4296 7334 4563 7477 4835 7533 C 4894 7545 4907 7545 4920 7534 C 4929 7525 4931 7517 4925 7511 z M 5710 7251 C 5860 7217 6003 7152 6008 7114 C 6011 7096 6003 7092 5937 7082 C 5840 7067 5712 7020 5618 6965 C 5460 6873 5298 6685 5231 6519 C 5189 6414 5178 6358 5178 6255 C 5178 6107 5227 5993 5334 5892 C 5424 5807 5519 5770 5650 5770 C 5806 5770 5935 5822 6112 5956 C 6174 6002 6258 6057 6298 6077 C 6363 6109 6383 6114 6461 6118 C 6536 6122 6561 6119 6613 6100 C 6685 6073 6750 6033 6750 6014 C 6750 6005 6729 6011 6683 6033 C 6622 6062 6605 6065 6525 6065 C 6445 6065 6428 6062 6368 6033 C 6308 6005 6210 5929 6210 5910 C 6210 5906 6239 5900 6274 5897 C 6352 5890 6395 5873 6444 5830 C 6495 5785 6545 5711 6528 5706 C 6521 5703 6398 5699 6255 5695 C 6112 5691 5988 5684 5978 5679 C 5956 5667 5954 5632 5975 5624 C 5983 5620 6126 5622 6292 5628 L 6595 5637 L 6645 5611 C 6688 5589 6707 5585 6780 5586 C 6850 5586 6875 5591 6924 5613 C 6970 5634 6998 5640 7052 5640 C 7119 5640 7121 5639 7115 5618 C 7082 5508 6983 5314 6954 5303 C 6946 5300 6856 5312 6753 5329 C 6501 5370 6026 5440 5996 5440 C 5969 5440 5951 5405 5968 5388 C 5974 5382 6124 5356 6302 5329 C 6803 5253 6903 5236 6907 5224 C 6912 5210 6725 5013 6671 4976 L 6631 4948 L 6433 5033 C 6137 5160 6003 5212 5983 5208 C 5961 5204 5959 5161 5980 5149 C 5992 5142 6428 4959 6533 4917 C 6548 4911 6560 4902 6560 4898 C 6560 4888 6432 4814 6351 4777 C 5907 4576 5132 4487 4410 4556 C 4094 4586 3832 4643 3612 4730 C 3500 4774 3342 4854 3316 4880 C 3306 4890 3403 4937 3690 5062 C 3792 5106 3881 5148 3888 5155 C 3899 5165 3899 5172 3891 5189 C 3884 5200 3876 5210 3871 5210 C 3866 5210 3823 5192 3774 5171 C 3725 5150 3595 5093 3485 5045 C 3375 4997 3275 4952 3262 4944 C 3249 4935 3234 4933 3226 4937 C 3185 4960 3042 5093 2990 5156 L 2930 5228 L 2993 5239 C 3027 5245 3226 5274 3435 5305 C 3906 5373 3885 5368 3885 5400 C 3885 5419 3879 5426 3860 5428 C 3840 5430 3435 5374 2994 5309 C 2950 5302 2907 5299 2898 5302 C 2869 5314 2746 5590 2763 5606 C 2772 5615 2810 5600 2810 5587 C 2810 5561 2885 5468 2924 5445 C 2984 5411 3022 5406 3083 5424 C 3152 5444 3209 5486 3261 5555 L 3304 5612 L 3592 5604 C 3862 5598 3880 5598 3886 5615 C 3890 5625 3889 5640 3883 5649 C 3874 5662 3841 5666 3669 5672 C 3557 5676 3438 5680 3405 5682 L 3345 5685 L 3415 5756 C 3488 5829 3564 5870 3630 5870 C 3646 5870 3662 5875 3666 5881 C 3677 5899 3599 5969 3530 6003 C 3472 6032 3456 6035 3380 6035 C 3308 6034 3285 6030 3232 6006 C 3170 5977 3137 5978 3175 6007 C 3220 6041 3293 6071 3357 6082 C 3414 6091 3437 6091 3501 6076 C 3589 6057 3653 6021 3778 5922 C 3917 5812 3989 5777 4108 5760 C 4260 5739 4398 5786 4511 5899 C 4610 5998 4649 6095 4650 6239 C 4650 6384 4587 6534 4472 6660 C 4428 6708 4410 6735 4414 6747 C 4426 6783 4548 6917 4632 6985 C 4822 7139 5057 7239 5300 7270 C 5405 7283 5609 7273 5710 7251 z M 3863 6684 C 4044 6638 4202 6496 4278 6315 C 4311 6237 4310 6217 4275 6194 C 4252 6179 4248 6179 4226 6193 C 4213 6202 4184 6247 4161 6293 C 4052 6520 3816 6632 3573 6575 C 3538 6567 3474 6542 3430 6520 C 3386 6498 3345 6480 3339 6480 C 3316 6480 3290 6513 3290 6542 C 3290 6565 3299 6576 3336 6599 C 3491 6698 3688 6729 3863 6684 z M 6324 6694 C 6414 6671 6545 6607 6565 6576 C 6588 6541 6578 6502 6544 6494 C 6525 6489 6495 6499 6431 6529 C 6344 6570 6236 6600 6170 6600 C 6118 6600 6016 6573 5952 6543 C 5864 6502 5764 6396 5708 6285 C 5667 6202 5661 6195 5631 6192 C 5556 6184 5552 6236 5617 6363 C 5699 6523 5843 6645 6005 6691 C 6083 6714 6241 6715 6324 6694 z M 7162 5885 C 7161 5863 7155 5815 7149 5778 L 7138 5710 L 7089 5710 L 7040 5710 L 7065 5748 C 7091 5788 7130 5888 7130 5915 C 7130 5925 7137 5930 7147 5928 C 7161 5925 7164 5916 7162 5885 z M 2750 5878 C 2751 5851 2770 5715 2776 5697 C 2781 5682 2777 5679 2759 5682 C 2732 5686 2722 5724 2721 5828 C 2720 5877 2723 5890 2735 5890 C 2743 5890 2750 5884 2750 5878 z M 7360 4984 C 7399 4976 7476 4945 7533 4917 C 7632 4867 7789 4763 7790 4748 C 7790 4743 7769 4740 7743 4740 C 7683 4740 7602 4719 7542 4687 L 7495 4662 L 7460 4687 C 7404 4727 7230 4808 7165 4826 C 7132 4834 7062 4845 7010 4848 L 6915 4856 L 7010 4904 C 7119 4961 7223 4999 7263 5000 C 7278 5000 7322 4993 7360 4984 z M 2780 4839 C 2780 4834 2752 4802 2717 4767 C 2547 4600 2512 4352 2639 4208 C 2665 4179 2668 4170 2656 4161 C 2645 4152 2633 4158 2598 4192 C 2476 4312 2467 4516 2578 4685 C 2648 4792 2780 4893 2780 4839 z M 7119 4739 C 7272 4705 7402 4630 7531 4501 C 7634 4397 7682 4326 7729 4208 C 7762 4128 7787 4033 7778 4025 C 7771 4018 7617 3979 7613 3983 C 7611 3985 7617 4006 7625 4030 C 7671 4159 7618 4277 7488 4335 C 7433 4360 7412 4364 7320 4365 C 7235 4366 7202 4371 7144 4392 C 7105 4407 7053 4421 7029 4425 L 6985 4432 L 6937 4578 C 6910 4659 6886 4731 6883 4738 C 6880 4745 6914 4732 6958 4708 C 7027 4671 7040 4667 7054 4679 C 7077 4698 7074 4725 7048 4744 C 7022 4763 7015 4763 7119 4739 z M 6712 4635 C 6757 4526 6796 4385 6819 4250 C 6843 4110 6847 3880 6829 3754 C 6818 3682 6816 3679 6804 3701 C 6793 3720 6791 3758 6796 3875 C 6806 4109 6774 4322 6699 4539 C 6646 4690 6642 4713 6665 4708 C 6677 4706 6694 4680 6712 4635 z M 7863 4653 C 7896 4648 7911 4636 7969 4563 C 8047 4466 8110 4365 8110 4335 C 8110 4324 8097 4288 8081 4255 C 8051 4191 7975 4113 7910 4080 L 7873 4061 L 7850 4143 C 7805 4296 7714 4455 7610 4558 C 7582 4585 7570 4604 7576 4610 C 7614 4648 7763 4670 7863 4653 z M 3595 4555 C 3657 4547 3675 4537 3666 4515 C 3661 4502 3653 4499 3632 4504 C 3617 4507 3565 4513 3515 4516 C 3302 4530 3129 4437 3048 4264 C 3022 4209 3016 4182 3012 4103 C 3008 4024 3005 4010 2991 4012 C 2979 4015 2974 4030 2972 4084 C 2963 4289 3076 4454 3278 4530 C 3372 4566 3455 4572 3595 4555 z M 6159 4427 C 6282 4159 6290 3899 6185 3649 C 6116 3485 5936 3249 5760 3091 C 5694 3032 5683 3026 5617 3014 C 5493 2990 5380 2936 5283 2853 C 5232 2810 5230 2809 5201 2824 C 5178 2836 5167 2854 5149 2907 C 5137 2944 5114 2997 5098 3024 C 5081 3052 5044 3122 5015 3180 C 4985 3239 4935 3323 4902 3366 C 4833 3458 4631 3656 4513 3750 C 4439 3808 4431 3817 4438 3840 C 4442 3854 4445 3908 4445 3960 C 4445 4035 4440 4068 4422 4115 C 4388 4204 4332 4279 4258 4335 C 4221 4362 4192 4385 4193 4386 C 4194 4386 4251 4380 4320 4372 C 4487 4352 5212 4350 5390 4368 C 5646 4394 5964 4446 6075 4479 C 6125 4494 6129 4492 6159 4427 z M 7090 4328 C 7109 4323 7131 4317 7138 4314 C 7146 4312 7130 4286 7094 4243 C 7062 4205 7033 4174 7030 4172 C 7026 4171 7019 4198 7016 4232 C 7012 4267 7006 4308 7003 4323 C 6997 4354 6999 4354 7090 4328 z M 7465 4263 C 7566 4211 7591 4132 7539 4029 C 7511 3972 7502 3969 7394 3972 L 7296 3975 L 7288 4007 C 7277 4049 7245 4070 7192 4070 C 7155 4070 7147 4066 7132 4040 C 7118 4015 7109 4010 7078 4010 C 7027 4010 7028 4030 7082 4110 C 7136 4191 7212 4267 7253 4279 C 7304 4295 7419 4286 7465 4263 z M 4126 4220 C 4217 4181 4290 4070 4298 3958 C 4305 3857 4294 3843 4265 3915 C 4238 3980 4214 4017 4187 4034 C 4174 4042 4166 4040 4149 4024 L 4128 4003 L 4159 3943 C 4205 3852 4215 3799 4196 3762 C 4180 3730 4139 3697 4099 3681 C 4075 3672 4075 3673 4078 3727 C 4081 3770 4076 3796 4055 3847 C 4024 3919 3997 3945 3968 3929 C 3944 3916 3945 3901 3976 3811 C 3999 3746 4000 3731 3991 3698 C 3977 3653 3954 3637 3878 3617 L 3820 3602 L 3820 3663 C 3820 3731 3791 3810 3766 3810 C 3722 3810 3719 3802 3726 3705 C 3732 3618 3732 3612 3711 3598 C 3685 3580 3639 3587 3588 3617 C 3548 3640 3495 3725 3486 3779 C 3463 3922 3576 4082 3764 4176 C 3912 4249 4027 4263 4126 4220 z M 8544 4152 C 8708 4075 8800 3925 8800 3732 C 8800 3576 8749 3437 8639 3290 C 8458 3050 8160 2876 7806 2805 C 7687 2781 7433 2753 7424 2763 C 7421 2766 7440 2798 7465 2836 C 7668 3132 7727 3491 7616 3742 L 7591 3799 L 7628 3805 C 7648 3808 7708 3820 7761 3832 L 7856 3852 L 7907 3827 C 7972 3794 8059 3714 8100 3649 C 8127 3607 8137 3599 8159 3602 C 8196 3606 8197 3639 8164 3701 C 8135 3753 8026 3863 7984 3882 C 7971 3888 7960 3896 7960 3899 C 7960 3902 7981 3916 8007 3930 C 8070 3963 8166 4053 8207 4117 C 8248 4181 8273 4191 8392 4186 C 8463 4183 8490 4177 8544 4152 z M 6594 3908 C 6648 3792 6690 3661 6725 3500 C 6758 3352 6770 3078 6751 2950 C 6711 2688 6613 2462 6460 2282 C 6373 2181 6357 2173 6375 2242 C 6383 2269 6395 2300 6402 2309 C 6536 2491 6573 2559 6625 2713 C 6677 2868 6694 2979 6694 3170 C 6695 3420 6656 3617 6556 3869 C 6531 3932 6513 3987 6516 3992 C 6532 4017 6555 3993 6594 3908 z M 2640 3963 C 2654 3954 2666 3946 2668 3945 C 2669 3944 2645 3901 2614 3849 C 2583 3797 2561 3766 2564 3780 C 2568 3794 2572 3819 2574 3835 C 2580 3886 2603 3980 2609 3980 C 2613 3980 2627 3972 2640 3963 z M 2868 3837 C 2927 3807 3010 3768 3052 3750 L 3129 3717 L 3063 3646 C 2905 3476 2792 3265 2751 3062 L 2734 2979 L 2676 3057 C 2571 3199 2530 3313 2545 3425 C 2552 3477 2606 3632 2647 3715 C 2685 3792 2744 3890 2753 3890 C 2757 3890 2809 3866 2868 3837 z M 7090 3833 L 7123 3827 L 7117 3756 C 7108 3656 7077 3552 7021 3434 C 6968 3323 6954 3306 6944 3344 C 6935 3381 6944 3440 6978 3575 C 6995 3641 7014 3728 7020 3768 C 7032 3844 7033 3845 7090 3833 z M 7367 3803 L 7482 3797 L 7506 3760 C 7634 3566 7602 3235 7427 2951 L 7406 2917 L 7394 2977 C 7381 3041 7355 3099 7309 3167 C 7277 3213 7247 3228 7225 3210 C 7203 3191 7207 3168 7241 3122 C 7286 3061 7312 2977 7313 2892 C 7313 2822 7300 2776 7276 2767 C 7260 2761 7073 2778 6992 2793 C 6935 2804 6925 2809 6927 2825 C 6929 2836 6936 2886 6945 2935 C 6953 2985 6960 3055 6960 3091 C 6960 3153 6963 3162 7006 3226 C 7105 3374 7168 3530 7196 3696 C 7217 3822 7217 3823 7236 3816 C 7245 3813 7303 3807 7367 3803 z M 4456 3644 C 4546 3580 4553 3574 4525 3585 C 4478 3604 4373 3639 4346 3645 L 4317 3651 L 4340 3676 C 4353 3689 4367 3700 4370 3700 C 4374 3700 4413 3675 4456 3644 z M 3336 3629 C 3396 3607 3456 3578 3470 3565 C 3484 3552 3514 3531 3537 3518 L 3580 3494 L 3513 3449 C 3424 3391 3288 3254 3222 3157 C 3121 3010 3054 2833 3043 2683 L 3037 2609 L 3006 2646 C 2989 2667 2940 2727 2897 2779 L 2820 2875 L 2826 2930 C 2852 3175 2981 3445 3152 3613 C 3184 3644 3214 3670 3218 3670 C 3223 3670 3276 3652 3336 3629 z M 4370 3455 C 4461 3432 4604 3360 4675 3303 C 4756 3237 4824 3151 4870 3055 C 4920 2952 4939 2878 4946 2760 C 4961 2532 4885 2324 4722 2149 C 4413 1817 3925 1752 3560 1995 C 3468 2056 3363 2169 3317 2257 C 3215 2452 3211 2705 3307 2923 C 3407 3151 3619 3344 3860 3427 C 3914 3445 3984 3465 4016 3470 C 4098 3483 4292 3474 4370 3455 z M 5811 2830 C 5897 2814 5998 2758 6068 2690 C 6255 2504 6265 2207 6088 2088 C 6039 2055 6010 2053 5984 2081 C 5968 2099 5965 2119 5964 2199 C 5962 2326 5964 2320 5931 2320 C 5909 2320 5900 2314 5890 2290 C 5876 2255 5871 2119 5883 2073 L 5892 2040 L 5820 2040 C 5753 2040 5746 2042 5720 2070 C 5672 2121 5669 2206 5711 2329 C 5733 2390 5729 2416 5698 2426 C 5670 2435 5646 2405 5624 2337 C 5603 2270 5594 2140 5608 2101 C 5619 2071 5618 2070 5592 2070 C 5577 2070 5544 2080 5520 2093 C 5439 2134 5421 2212 5461 2347 C 5484 2425 5479 2450 5439 2450 C 5414 2450 5396 2420 5371 2336 C 5348 2261 5345 2206 5360 2164 C 5374 2129 5368 2125 5332 2144 C 5231 2196 5194 2333 5240 2482 C 5314 2722 5566 2876 5811 2830 z" stroke-linecap="round" />
</g>
		<g transform="matrix(0.13 0 0 -0.13 -45.76 -63.23)"  >
<path style="stroke: none; stroke-width: 1; stroke-dasharray: none; stroke-linecap: butt; stroke-dashoffset: 0; stroke-linejoin: miter; stroke-miterlimit: 4; fill: rgb(0,0,0); fill-rule: nonzero; opacity: 1;" vector-effect="non-scaling-stroke"  transform=" translate(-4910.2, -5513.11)" d="M 4784 5922 C 4716 5898 4683 5876 4660 5837 C 4617 5767 4646 5696 4737 5652 L 4795 5625 L 4802 5568 C 4810 5506 4821 5477 4852 5443 C 4880 5413 4870 5380 4814 5320 C 4702 5200 4490 5172 4325 5255 C 4245 5295 4230 5297 4207 5272 C 4155 5215 4221 5150 4375 5104 C 4449 5083 4602 5082 4679 5103 C 4723 5115 4738 5116 4763 5105 C 4818 5082 4877 5113 4916 5185 L 4934 5218 L 4962 5174 C 4998 5117 5046 5094 5095 5110 C 5121 5119 5146 5117 5211 5104 C 5267 5093 5315 5089 5359 5094 C 5540 5110 5684 5218 5612 5283 C 5586 5307 5559 5304 5519 5274 C 5452 5224 5366 5205 5267 5219 C 5141 5237 5028 5312 5000 5395 C 4989 5429 4990 5434 5015 5460 C 5035 5481 5045 5506 5053 5559 L 5065 5630 L 5118 5656 C 5181 5687 5210 5725 5210 5777 C 5210 5834 5180 5873 5113 5906 C 5062 5932 5043 5935 4945 5938 C 4859 5940 4824 5936 4784 5922 z M 5062 5844 C 5118 5826 5132 5810 5128 5773 C 5126 5750 5115 5740 5073 5720 C 5000 5685 4991 5673 4979 5594 C 4967 5519 4957 5500 4930 5500 C 4903 5500 4889 5524 4880 5588 C 4868 5672 4857 5688 4784 5721 C 4731 5745 4720 5754 4720 5774 C 4720 5811 4780 5847 4870 5864 C 4909 5871 5010 5861 5062 5844 z" stroke-linecap="round" />
</g>
		<g transform="matrix(0.13 0 0 -0.13 44.72 -70.34)"  >
<path style="stroke: none; stroke-width: 1; stroke-dasharray: none; stroke-linecap: butt; stroke-dashoffset: 0; stroke-linejoin: miter; stroke-miterlimit: 4; fill: rgb(0,0,0); fill-rule: nonzero; opacity: 1;" vector-effect="non-scaling-stroke"  transform=" translate(-5588.8, -5566.42)" d="M 5557 5604 C 5542 5589 5550 5541 5570 5530 C 5603 5513 5632 5534 5628 5573 C 5625 5600 5621 5605 5595 5608 C 5578 5610 5561 5608 5557 5604 z" stroke-linecap="round" />
</g>
		<g transform="matrix(0.13 0 0 -0.13 -133.22 -68.75)"  >
<path style="stroke: none; stroke-width: 1; stroke-dasharray: none; stroke-linecap: butt; stroke-dashoffset: 0; stroke-linejoin: miter; stroke-miterlimit: 4; fill: rgb(0,0,0); fill-rule: nonzero; opacity: 1;" vector-effect="non-scaling-stroke"  transform=" translate(-4254.26, -5554.51)" d="M 4228 5589 C 4192 5568 4212 5510 4255 5510 C 4297 5510 4314 5554 4284 5584 C 4266 5602 4252 5604 4228 5589 z" stroke-linecap="round" />
</g>
		<g transform="matrix(0.13 0 0 -0.13 18.56 -67.38)"  >
<path style="stroke: none; stroke-width: 1; stroke-dasharray: none; stroke-linecap: butt; stroke-dashoffset: 0; stroke-linejoin: miter; stroke-miterlimit: 4; fill: rgb(0,0,0); fill-rule: nonzero; opacity: 1;" vector-effect="non-scaling-stroke"  transform=" translate(-5392.63, -5544.22)" d="M 5362 5578 C 5355 5571 5350 5557 5350 5545 C 5350 5500 5410 5482 5430 5521 C 5453 5562 5395 5611 5362 5578 z" stroke-linecap="round" />
</g>
		<g transform="matrix(0.13 0 0 -0.13 -106.55 -66.08)"  >
<path style="stroke: none; stroke-width: 1; stroke-dasharray: none; stroke-linecap: butt; stroke-dashoffset: 0; stroke-linejoin: miter; stroke-miterlimit: 4; fill: rgb(0,0,0); fill-rule: nonzero; opacity: 1;" vector-effect="non-scaling-stroke"  transform=" translate(-4454.26, -5534.51)" d="M 4428 5569 C 4392 5548 4412 5490 4455 5490 C 4497 5490 4514 5534 4484 5564 C 4466 5582 4452 5584 4428 5569 z" stroke-linecap="round" />
</g>
		<g transform="matrix(0.13 0 0 -0.13 33.39 -46.39)"  >
<path style="stroke: none; stroke-width: 1; stroke-dasharray: none; stroke-linecap: butt; stroke-dashoffset: 0; stroke-linejoin: miter; stroke-miterlimit: 4; fill: rgb(0,0,0); fill-rule: nonzero; opacity: 1;" vector-effect="non-scaling-stroke"  transform=" translate(-5503.86, -5386.77)" d="M 5472 5418 C 5433 5379 5489 5318 5530 5355 C 5564 5386 5550 5430 5505 5430 C 5493 5430 5479 5425 5472 5418 z" stroke-linecap="round" />
</g>
		<g transform="matrix(0.13 0 0 -0.13 -125.17 -45.09)"  >
<path style="stroke: none; stroke-width: 1; stroke-dasharray: none; stroke-linecap: butt; stroke-dashoffset: 0; stroke-linejoin: miter; stroke-miterlimit: 4; fill: rgb(0,0,0); fill-rule: nonzero; opacity: 1;" vector-effect="non-scaling-stroke"  transform=" translate(-4314.65, -5377.05)" d="M 4282 5408 C 4263 5389 4268 5352 4291 5340 C 4307 5331 4317 5332 4336 5345 C 4375 5371 4362 5420 4315 5420 C 4303 5420 4289 5415 4282 5408 z" stroke-linecap="round" />
</g>
		<g transform="matrix(0.13 0 0 -0.13 276.39 122.9)"  >
<path style="stroke: none; stroke-width: 1; stroke-dasharray: none; stroke-linecap: butt; stroke-dashoffset: 0; stroke-linejoin: miter; stroke-miterlimit: 4; fill: rgb(0,0,0); fill-rule: nonzero; opacity: 1;" vector-effect="non-scaling-stroke"  transform=" translate(-7326.33, -4117.15)" d="M 7282 4230 C 7242 4221 7200 4184 7200 4158 C 7200 4134 7226 4135 7257 4160 C 7294 4189 7345 4186 7377 4154 C 7401 4130 7402 4124 7397 4064 C 7391 4007 7393 4000 7409 4000 C 7450 4000 7468 4106 7437 4166 C 7409 4220 7349 4245 7282 4230 z" stroke-linecap="round" />
</g>
		<g transform="matrix(0.13 0 0 -0.13 -162.43 309.23)"  >
<path style="stroke: none; stroke-width: 1; stroke-dasharray: none; stroke-linecap: butt; stroke-dashoffset: 0; stroke-linejoin: miter; stroke-miterlimit: 4; fill: rgb(0,0,0); fill-rule: nonzero; opacity: 1;" vector-effect="non-scaling-stroke"  transform=" translate(-4035.18, -2719.63)" d="M 3870 3304 C 3812 3288 3728 3239 3706 3209 C 3695 3193 3689 3192 3661 3201 C 3637 3209 3626 3209 3615 3200 C 3587 3177 3596 3158 3654 3117 C 3671 3105 3671 3098 3660 3014 C 3647 2927 3654 2868 3685 2789 C 3690 2776 3682 2769 3653 2760 C 3597 2742 3494 2673 3460 2629 C 3406 2562 3387 2505 3392 2431 C 3398 2349 3423 2299 3488 2238 C 3683 2056 3990 2090 4126 2310 C 4146 2343 4165 2370 4168 2370 C 4170 2370 4213 2343 4262 2309 C 4365 2239 4443 2200 4482 2200 C 4496 2200 4523 2212 4540 2227 C 4570 2252 4572 2257 4568 2306 C 4564 2357 4564 2359 4591 2365 C 4623 2372 4667 2419 4676 2456 C 4680 2470 4680 2498 4677 2519 C 4663 2628 4578 2714 4420 2781 C 4382 2798 4361 2811 4370 2814 C 4378 2817 4405 2824 4430 2831 C 4598 2874 4700 3025 4646 3153 C 4603 3257 4426 3322 4251 3299 C 4190 3291 4163 3292 4115 3304 C 4042 3324 3943 3323 3870 3304 z M 4070 3233 C 4070 3229 4047 3205 4019 3179 C 3941 3107 3975 3082 4064 3145 C 4143 3201 4212 3223 4315 3224 C 4482 3226 4580 3174 4580 3084 C 4580 3015 4545 2962 4475 2927 C 4429 2905 4259 2868 4225 2873 C 4154 2885 4040 2952 3962 3029 C 3909 3082 3867 3113 3827 3130 C 3796 3144 3770 3158 3770 3162 C 3770 3174 3831 3213 3873 3226 C 3917 3239 4070 3245 4070 3233 z M 3846 3035 C 3863 3022 3902 2985 3931 2954 C 3990 2892 4057 2855 4261 2769 C 4537 2654 4600 2603 4602 2498 C 4603 2424 4552 2410 4463 2461 C 4411 2491 4408 2491 4389 2475 C 4362 2450 4365 2435 4403 2411 C 4453 2380 4489 2342 4496 2314 C 4505 2279 4485 2268 4444 2285 C 4374 2314 3904 2636 3845 2695 C 3749 2790 3711 2896 3730 3014 C 3735 3047 3740 3078 3740 3083 C 3740 3094 3809 3063 3846 3035 z M 3798 2630 L 3848 2574 L 3824 2551 C 3790 2518 3791 2459 3826 2431 C 3877 2391 3945 2414 3958 2477 L 3965 2508 L 4027 2467 C 4062 2444 4090 2419 4090 2412 C 4090 2388 4050 2321 4014 2286 C 3949 2223 3899 2205 3785 2205 C 3698 2205 3678 2208 3630 2231 C 3521 2282 3468 2352 3466 2445 C 3465 2549 3570 2662 3695 2690 C 3733 2699 3737 2696 3798 2630 z" stroke-linecap="round" />
</g>
		<g transform="matrix(0.13 0 0 -0.13 -126.8 265.46)"  >
<path style="stroke: none; stroke-width: 1; stroke-dasharray: none; stroke-linecap: butt; stroke-dashoffset: 0; stroke-linejoin: miter; stroke-miterlimit: 4; fill: rgb(0,0,0); fill-rule: nonzero; opacity: 1;" vector-effect="non-scaling-stroke"  transform=" translate(-4302.4, -3047.91)" d="M 4214 3170 C 4190 3160 4176 3134 4191 3125 C 4196 3121 4219 3121 4241 3125 C 4271 3130 4287 3127 4308 3114 C 4355 3083 4361 3070 4358 2990 C 4355 2929 4358 2915 4370 2915 C 4391 2915 4420 2978 4420 3025 C 4420 3134 4313 3210 4214 3170 z" stroke-linecap="round" />
</g>
		<g transform="matrix(0.13 0 0 -0.13 -143.9 270.18)"  >
<path style="stroke: none; stroke-width: 1; stroke-dasharray: none; stroke-linecap: butt; stroke-dashoffset: 0; stroke-linejoin: miter; stroke-miterlimit: 4; fill: rgb(0,0,0); fill-rule: nonzero; opacity: 1;" vector-effect="non-scaling-stroke"  transform=" translate(-4174.14, -3012.5)" d="M 4134 3086 C 4052 3050 4088 2930 4181 2930 C 4210 2930 4260 2983 4260 3014 C 4260 3045 4223 3088 4190 3094 C 4176 3097 4151 3093 4134 3086 z" stroke-linecap="round" />
</g>
		<g transform="matrix(0.13 0 0 -0.13 -148.47 302.35)"  >
<path style="stroke: none; stroke-width: 1; stroke-dasharray: none; stroke-linecap: butt; stroke-dashoffset: 0; stroke-linejoin: miter; stroke-miterlimit: 4; fill: rgb(0,0,0); fill-rule: nonzero; opacity: 1;" vector-effect="non-scaling-stroke"  transform=" translate(-4139.86, -2771.25)" d="M 3753 2994 C 3743 2968 3757 2874 3779 2826 C 3803 2771 3885 2682 3949 2641 C 3975 2624 4025 2603 4062 2593 C 4124 2577 4132 2577 4227 2595 C 4345 2616 4398 2608 4464 2559 C 4513 2523 4530 2522 4530 2556 C 4530 2591 4482 2635 4418 2656 C 4367 2673 4352 2673 4150 2654 C 4094 2649 4077 2652 4028 2673 C 3920 2721 3810 2857 3810 2943 C 3810 2997 3769 3035 3753 2994 z" stroke-linecap="round" />
</g>
		<g transform="matrix(0.13 0 0 -0.13 -198.94 347.07)"  >
<path style="stroke: none; stroke-width: 1; stroke-dasharray: none; stroke-linecap: butt; stroke-dashoffset: 0; stroke-linejoin: miter; stroke-miterlimit: 4; fill: rgb(0,0,0); fill-rule: nonzero; opacity: 1;" vector-effect="non-scaling-stroke"  transform=" translate(-3761.35, -2435.85)" d="M 3599 2597 C 3521 2545 3527 2438 3611 2346 C 3678 2273 3739 2247 3836 2252 C 3890 2254 3916 2261 3936 2276 C 3975 2304 3987 2327 3973 2341 C 3964 2350 3952 2347 3923 2329 C 3894 2311 3871 2305 3825 2305 C 3735 2306 3660 2352 3619 2432 C 3593 2483 3595 2516 3626 2547 C 3649 2570 3657 2572 3701 2566 C 3740 2561 3750 2562 3750 2574 C 3750 2623 3658 2637 3599 2597 z" stroke-linecap="round" />
</g>
		<g transform="matrix(0.13 0 0 -0.13 24.69 -482.16)"  >
<path style="stroke: none; stroke-width: 1; stroke-dasharray: none; stroke-linecap: butt; stroke-dashoffset: 0; stroke-linejoin: miter; stroke-miterlimit: 4; fill: rgb(0,0,0); fill-rule: nonzero; opacity: 1;" vector-effect="non-scaling-stroke"  transform=" translate(-5438.55, -8655.07)" d="M 5380 8723 C 5313 8663 5355 8560 5446 8560 C 5485 8560 5530 8611 5530 8655 C 5530 8682 5522 8699 5501 8721 C 5463 8759 5421 8760 5380 8723 z" stroke-linecap="round" />
</g>
		<g transform="matrix(0.13 0 0 -0.13 326.43 -306.81)"  >
<path style="stroke: none; stroke-width: 1; stroke-dasharray: none; stroke-linecap: butt; stroke-dashoffset: 0; stroke-linejoin: miter; stroke-miterlimit: 4; fill: rgb(0,0,0); fill-rule: nonzero; opacity: 1;" vector-effect="non-scaling-stroke"  transform=" translate(-7701.63, -7339.96)" d="M 7646 7455 C 7609 7435 7593 7414 7580 7367 C 7571 7336 7572 7322 7588 7287 C 7630 7192 7756 7184 7810 7273 C 7876 7381 7757 7513 7646 7455 z" stroke-linecap="round" />
</g>
		<g transform="matrix(0.13 0 0 -0.13 326.78 -197.69)"  >
<path style="stroke: none; stroke-width: 1; stroke-dasharray: none; stroke-linecap: butt; stroke-dashoffset: 0; stroke-linejoin: miter; stroke-miterlimit: 4; fill: rgb(0,0,0); fill-rule: nonzero; opacity: 1;" vector-effect="non-scaling-stroke"  transform=" translate(-7704.26, -6521.54)" d="M 7653 6635 C 7635 6627 7611 6606 7600 6588 C 7523 6462 7681 6330 7792 6429 C 7817 6451 7824 6466 7828 6508 C 7833 6568 7818 6600 7767 6630 C 7730 6653 7697 6655 7653 6635 z" stroke-linecap="round" />
</g>
		<g transform="matrix(0.13 0 0 -0.13 -417.64 -196.5)"  >
<path style="stroke: none; stroke-width: 1; stroke-dasharray: none; stroke-linecap: butt; stroke-dashoffset: 0; stroke-linejoin: miter; stroke-miterlimit: 4; fill: rgb(0,0,0); fill-rule: nonzero; opacity: 1;" vector-effect="non-scaling-stroke"  transform=" translate(-2121.08, -6512.65)" d="M 2060 6580 C 2017 6537 2022 6471 2073 6439 C 2162 6384 2259 6502 2185 6575 C 2154 6607 2089 6609 2060 6580 z" stroke-linecap="round" />
</g>
		<g transform="matrix(0.13 0 0 -0.13 44.51 456.44)"  >
<path style="stroke: none; stroke-width: 1; stroke-dasharray: none; stroke-linecap: butt; stroke-dashoffset: 0; stroke-linejoin: miter; stroke-miterlimit: 4; fill: rgb(0,0,0); fill-rule: nonzero; opacity: 1;" vector-effect="non-scaling-stroke"  transform=" translate(-5587.21, -1615.56)" d="M 4989 1671 C 4957 1645 4957 1585 4989 1558 C 5012 1540 5036 1540 5592 1542 L 6172 1545 L 6191 1569 C 6218 1603 6215 1644 6184 1669 C 6158 1690 6149 1690 5585 1690 C 5040 1690 5011 1689 4989 1671 z" stroke-linecap="round" />
</g>
		<g transform="matrix(0.13 0 0 -0.13 -139.12 488.57)"  >
<path style="stroke: none; stroke-width: 1; stroke-dasharray: none; stroke-linecap: butt; stroke-dashoffset: 0; stroke-linejoin: miter; stroke-miterlimit: 4; fill: rgb(0,0,0); fill-rule: nonzero; opacity: 1;" vector-effect="non-scaling-stroke"  transform=" translate(-4210, -1374.62)" d="M 4153 1470 C 4112 1446 4100 1422 4100 1368 C 4101 1281 4182 1234 4260 1275 C 4292 1292 4320 1336 4320 1370 C 4320 1411 4288 1462 4254 1476 C 4210 1495 4191 1494 4153 1470 z" stroke-linecap="round" />
</g>
</g>
</g>
</svg>